# xmcd
#
# Track frame offsets:
#	150
#	18787
#	39415
#	55300
#	72785
#	91192
#	117465
#	132857
#	150810
#	169505
#	195437
#	217637
#	235282
#	253167
#	269417
#	289907
#
# Disc length: 4097 seconds
#
# Revision: 7
# Processed by: cddbd v1.5.2PL0 Copyright (c) Steve Scherf et al.
# Submitted via: audiograbber 1.83.01
#
DISCID=d00fff10
DTITLE=The Black Sorrows - The Chosen Ones (Greatest Hits)
DYEAR=1993
DGENRE=Blues
TTITLE0=The Chosen Ones
TTITLE1=Come On, Come On
TTITLE2=Brown Eyed Girl
TTITLE3=Hold On To Me
TTITLE4=Never Let Me Go
TTITLE5=Ain't Love The Strangest Thing
TTITLE6=The Crack-Up
TTITLE7=Chained To The Wheel
TTITLE8=Daughters Of Glory
TTITLE9=Hold It Up To The Mirror
TTITLE10=Better Times
TTITLE11=Harley and Rose
TTITLE12=Baby It's A Crime
TTITLE13=Stir It Up
TTITLE14=Mystified
TTITLE15=Sons Of The Sea
EXTD=YEAR: 1993 ID3G:   0
EXTT0=
EXTT1=
EXTT2=
EXTT3=
EXTT4=
EXTT5=
EXTT6=
EXTT7=
EXTT8=
EXTT9=
EXTT10=
EXTT11=
EXTT12=
EXTT13=
EXTT14=
EXTT15=
PLAYORDER=
